<svg id="Capa_1" enable-background="new 0 0 512 512" height="512" viewBox="0 0 512 512" width="512" xmlns="http://www.w3.org/2000/svg"><g><circle cx="256" cy="256" fill="#a6d12b" r="256"/><g><g><path d="m512 256c0-5.642-.203-11.236-.562-16.787l-103.389-103.388-4.087 2.434-50.005-50.005-21.933 38.095h-86.936l-33.538-33.538-107.6 121.209 57.023 57.023-36.626 161.347 72.802 72.802c18.897 4.446 38.597 6.808 58.851 6.808 141.385 0 256-114.615 256-256z" fill="#80b405"/></g></g><path d="m256 182.006 44.401 250.384h87.252v-218.37z" fill="#005fe0"/><path d="m124.347 214.02v218.37h87.252l44.401-250.384z" fill="#0081ff"/><g><path d="m211.599 135.825v296.565h44.401l10-166.864-10-129.701z" fill="#fff"/><path d="m256 135.825h44.401v296.565h-44.401z" fill="#e3eaee"/></g><path d="m103.951 135.825h152.049v78.195h-152.049z" fill="#a1d7f3"/><path d="m256 135.825h152.049v78.195h-152.049z" fill="#72bbff"/><g><path d="m230.032 119.768-4.107-6.961c-12.137-20.572-23.189-33.197-47.075-33.197-16.733 0-30.298 13.565-30.298 30.298 0 10.985 5.846 20.605 14.597 25.917-8.751 5.313-14.597 14.932-14.597 25.917 0 16.733 13.565 30.297 30.298 30.297 23.886 0 34.937-12.625 47.075-33.197l4.107-6.961c5.383 8.687 5.383-40.8 0-32.113z" fill="#ff7cb7"/><path d="m348.85 136.182c8.751-5.313 14.597-14.932 14.597-25.917 0-16.733-13.565-30.297-30.298-30.297-23.886 0-34.937 12.625-47.075 33.197l-3.997 6.775c-5.362-8.783-5.622 40.704-.219 32.113l4.216 7.147c12.137 20.572 23.189 33.197 47.075 33.197 16.733 0 30.298-13.565 30.298-30.297 0-10.986-5.846-20.606-14.597-25.918z" fill="#ec3c93"/></g><g><path d="m224.096 136.003c0 17.62 14.284 31.904 31.904 31.904l10-32.082-10-31.726c-17.62 0-31.904 14.284-31.904 31.904z" fill="#ffd300"/><path d="m256 104.099v63.808c17.62 0 31.904-14.284 31.904-31.904s-14.284-31.904-31.904-31.904z" fill="#ff9e00"/></g></g></svg>