<svg id="Capa_1" enable-background="new 0 0 512 512" height="512" viewBox="0 0 512 512" width="512" xmlns="http://www.w3.org/2000/svg"><g><circle cx="256" cy="256" fill="#a6d12b" r="256"/><g><g><path d="m512 256c0-26.366-3.99-51.799-11.392-75.733l-84.5-84.5-308.213 308.212 104.268 104.268c14.246 2.458 28.889 3.753 43.837 3.753 141.385 0 256-114.615 256-256z" fill="#80b405"/></g></g><g><g><path d="m307.135 199.911c-26.95-24.433-68.622-23.648-94.625 2.355-5.641 5.641-10.094 12.019-13.361 18.824-5.202 10.836-15.934 17.769-27.938 18.372-19.907 1-39.562 8.137-55.888 21.413-44.406 36.111-47.282 103.204-7.427 143.103l114.378-94.378 87.33-107.33c-.802-.8-1.621-1.59-2.469-2.359z" fill="#ffd300"/><path d="m272.398 340.921c.643-12.156 7.728-23.017 18.676-28.336 6.364-3.092 12.35-7.226 17.702-12.402 27.539-26.636 27.606-71.091.827-97.911l-201.708 201.707c1.418 1.419 2.884 2.807 4.41 4.155 37.881 33.46 95.758 32.077 131.985-4.15 17.526-17.526 26.894-40.119 28.108-63.063z" fill="#ff9e00"/><g><path d="m180.732 268.594c-17.244 17.244-17.245 45.304 0 62.548l33.919-23.919 28.629-38.629c-17.244-17.244-45.303-17.244-62.548 0z" fill="#a1d7f3"/><path d="m243.28 331.142c17.245-17.245 17.244-45.304 0-62.548l-62.548 62.548c17.245 17.245 45.304 17.245 62.548 0z" fill="#72bbff"/><path d="m404.583 84.242c-6.83-6.83-18.206-5.685-23.538 2.369l-24.933 46.515 2.829 8.829 8.489 2.489 26.383-17.383 22.294-31.294z" fill="#0081ff"/><path d="m425.264 130.829c8.054-5.332 9.199-16.708 2.369-23.538l-11.525-11.525-48.678 48.678 3.024 8.024 8.294 3.294z" fill="#005fe0"/><path d="m148.333 315.57-15.091 15.092 23.985 23.985 10.884-2.884 4.207-12.207z" fill="#0081ff"/><path d="m166.094 342.134h21.342v33.921h-21.342z" fill="#005fe0" transform="matrix(.707 -.707 .707 .707 -202.145 230.169)"/></g></g><g><path d="m356.112 133.126-126.279 126.278c4.882 2.144 9.456 5.199 13.447 9.19l65.425-57.425 58.725-66.725z" fill="#5a5a5a"/><path d="m367.43 144.444-124.15 124.15c3.991 3.991 7.046 8.565 9.19 13.447l126.279-126.279z" fill="#32393f"/></g></g><g><path d="m195.823 283.685c-8.938 8.938-8.937 23.428 0 32.365l18.801-10.801 13.564-21.564c-8.937-8.937-23.427-8.937-32.365 0z" fill="#5a5a5a"/><path d="m195.824 316.051c8.938 8.938 23.428 8.938 32.365 0 8.937-8.937 8.938-23.428 0-32.365z" fill="#32393f"/></g></g></svg>