<svg id="Capa_1" enable-background="new 0 0 512 512" height="512" viewBox="0 0 512 512" width="512" xmlns="http://www.w3.org/2000/svg"><g><circle cx="256" cy="256" fill="#ffd300" r="256"/><g><path d="m512 256c0-21.016-2.551-41.434-7.327-60.978l-98.545-98.545-111.064 93.958 41.353 41.353h-130.62l-41.583-41.583-58.34 225.319 89.15 89.15c19.543 4.775 39.96 7.326 60.976 7.326 141.385 0 256-114.615 256-256z" fill="#ff9e00"/></g><g><path d="m321.106 182.074h58.979v46.261h-58.979z" fill="#32393f"/><path d="m134.213 190.204h30v41.082h-30z" fill="#5a5a5a"/><g><path d="m105.872 220.204v195.319h150.128l20-91.353-20-103.966z" fill="#0081ff"/><path d="m256 220.204h150.128v195.319h-150.128z" fill="#005fe0"/></g><g><path d="m189.681 317.863c0 36.568 29.751 66.319 66.319 66.319l10-66.319-10-66.319c-36.568 0-66.319 29.751-66.319 66.319z" fill="#5a5a5a"/><path d="m256 251.544v132.639c36.568 0 66.319-29.751 66.319-66.319s-29.751-66.32-66.319-66.32z" fill="#32393f"/></g><path d="m406.128 96.477h-111.064v93.958h111.064z" fill="#7c8186"/><g><path d="m219.681 317.863c0 20.026 16.293 36.319 36.319 36.319l10-36.319-10-36.319c-20.026 0-36.319 16.293-36.319 36.319z" fill="#a1d7f3"/><path d="m256 281.544v72.639c20.026 0 36.319-16.293 36.319-36.319s-16.293-36.32-36.319-36.32z" fill="#72bbff"/></g><path d="m376.128 126.477v33.957h-51.064v-33.957z" fill="#72bbff"/></g></g></svg>