<svg id="Capa_1" enable-background="new 0 0 512 512" height="512" viewBox="0 0 512 512" width="512" xmlns="http://www.w3.org/2000/svg"><g><circle cx="256" cy="256" fill="#0081ff" r="256"/><g><path d="m511.956 259.465-190.417-190.417-47.247 72.38-64.098-64.098 17.265 249.99-91.694 106.212 74.363 74.363c14.884 2.693 30.213 4.105 45.872 4.105 140.226 0 254.099-112.749 255.956-252.535z" fill="#005fe0"/></g><g><path d="m190.461 133.304v-63.256-1c16.569 0 30 15.431 30 32z" fill="#dddde1"/><path d="m291.539 101.048c0-16.569 13.431-32 30-32v1 63.256z" fill="#9f9fa5"/></g><g><path d="m223.231 100.534c-18.098 0-32.769 14.671-32.769 32.769v21.427c0 17.803 8.131 34.631 22.079 45.695l43.459 10 10-41.026-10-36.096c0-18.097-14.671-32.769-32.769-32.769z" fill="#fff"/><path d="m299.46 200.426c13.948-11.064 22.079-27.892 22.079-45.695v-21.427c0-18.098-14.671-32.769-32.769-32.769s-32.77 14.671-32.77 32.769v77.123z" fill="#e3eaee"/><path d="m212.541 230.426c-52.851 20.722-87.618 71.697-87.618 128.465v50.292c0 18.098 14.671 32.769 32.769 32.769s32.769-14.671 32.769-32.769c0 18.098 14.671 32.769 32.769 32.769s32.769-14.671 32.769-32.769l10-85.703-10-103.054z" fill="#fff"/><path d="m299.46 230.426-43.46-10v188.757c0 18.098 14.671 32.769 32.769 32.769s32.769-14.671 32.769-32.769c0 18.098 14.671 32.769 32.769 32.769s32.769-14.671 32.769-32.769v-50.292c.001-56.768-34.766-107.743-87.616-128.465z" fill="#e3eaee"/></g><g><path d="m212.541 200.426h43.459v30h-43.459z" fill="#ff7cb7"/><path d="m256 200.426h43.459v30h-43.459z" fill="#ec3c93"/></g></g></svg>