<svg id="Capa_1" enable-background="new 0 0 512 512" height="512" viewBox="0 0 512 512" width="512" xmlns="http://www.w3.org/2000/svg"><g><circle cx="256" cy="256" fill="#ffd300" r="256"/><g><path d="m512 256c0-4.418-.112-8.811-.333-13.174l-138.099-138.099-8.162 9.548-64.089-64.09-45.317 215.009-175.254 107.343 136.553 136.553c12.622 1.914 25.545 2.91 38.701 2.91 141.385 0 256-114.615 256-256z" fill="#ff9e00"/></g><g><path d="m108.432 227.132v122.405h147.568l30-55.013-30-67.392z" fill="#a1d7f3"/><path d="m256 227.132h147.568v122.405h-147.568z" fill="#72bbff"/><path d="m227.459 434.808h28.541l10-31.136-10-31.135h-28.541z" fill="#9f9fa5"/><path d="m256 372.537h28.541v62.27h-28.541z" fill="#7c8186"/><path d="m231.27 41.566c-15.966 0-28.91 12.943-28.91 28.91 0 22.792 12.047 33.337 31.677 44.919l21.963 12.958 20-34.633-20-38.225c-5.069-8.35-14.248-13.929-24.73-13.929z" fill="#ff7cb7"/><path d="m309.64 70.476c0-15.967-12.943-28.91-28.91-28.91-10.482 0-19.661 5.579-24.73 13.929v72.858l21.963-12.958c19.63-11.582 31.677-22.127 31.677-44.919z" fill="#ec3c93"/></g><g><path d="m138.432 104.727v122.405h117.568l30-55.246-30-67.159z" fill="#fff"/><path d="m256 104.727h117.568v122.406h-117.568z" fill="#e3eaee"/><path d="m197.946 457.213h58.054l20-15-20-15h-58.054z" fill="#dddde1"/><path d="m93.432 349.537c-8.284 0-15 6.716-15 15 0 8.284 6.716 15 15 15h162.568l20-15-20-15z" fill="#fff"/><path d="m418.568 349.537h-162.568v30h162.568c8.284 0 15-6.716 15-15 0-8.284-6.716-15-15-15z" fill="#e3eaee"/><path d="m256 427.213h58.054v30h-58.054z" fill="#b8b8be"/></g><g><path d="m247.436 272.033c-6.583 10.922-18.128 17.442-30.882 17.442-12.753 0-24.298-6.521-30.881-17.442h-17.129c-6.583 10.922-18.128 17.442-30.881 17.442-11.752 0-22.467-5.547-29.23-14.962v26.812c8.62 5.266 18.657 8.15 29.23 8.15 15.096 0 29.103-5.877 39.446-16.177 10.343 10.3 24.35 16.177 39.446 16.177 15.097 0 29.103-5.877 39.446-16.177v-21.266h-8.565z" fill="#0081ff"/><path d="m374.338 289.475c-12.753 0-24.298-6.521-30.881-17.442h-17.129c-6.583 10.922-18.128 17.442-30.881 17.442s-24.298-6.521-30.881-17.442h-8.566v21.266c10.343 10.3 24.35 16.177 39.446 16.177s29.103-5.877 39.446-16.177c10.343 10.3 24.35 16.177 39.446 16.177 10.573 0 20.61-2.884 29.23-8.15v-26.811c-6.764 9.413-17.479 14.96-29.23 14.96z" fill="#005fe0"/><path d="m256 168.972c-12.353 0-23.705-6.211-30.366-16.613l-3.114-4.864-16.843-.001-3.115 4.864c-6.662 10.403-18.014 16.614-30.367 16.614s-23.705-6.211-30.366-16.614l-3.115-4.864-.282.181v29.995c9.57 7.238 21.333 11.303 33.763 11.303 16.233 0 31.357-6.901 41.902-18.805 10.545 11.904 25.668 18.805 41.902 18.805l8-9.345z" fill="#0081ff"/><path d="m297.903 170.167c10.545 11.904 25.667 18.805 41.902 18.805 12.429 0 24.192-4.065 33.763-11.303v-29.994l-.283-.181-3.114 4.863c-6.662 10.403-18.013 16.614-30.366 16.614-12.354 0-23.705-6.211-30.366-16.613l-3.114-4.864-16.843-.001-3.115 4.864c-6.662 10.403-18.013 16.614-30.366 16.614v20c16.234.001 31.356-6.899 41.902-18.804z" fill="#005fe0"/></g><g><circle cx="213.806" cy="156.886" fill="#ff7cb7" r="15"/><circle cx="298.194" cy="156.886" fill="#ec3c93" r="15"/></g><g><circle cx="334.409" cy="280.194" fill="#ec3c93" r="15"/><circle cx="177.591" cy="280.194" fill="#ff7cb7" r="15"/></g><g><path d="m241 280.194c0 8.284 6.716 15 15 15l10-15-10-15c-8.284 0-15 6.716-15 15z" fill="#ff7cb7"/><path d="m256 265.194v30c8.284 0 15-6.716 15-15s-6.716-15-15-15z" fill="#ec3c93"/></g></g></svg>